<svg id="facebook-logo" xmlns="http://www.w3.org/2000/svg" width="8.406" height="15.548" viewBox="0 0 8.406 15.548">
  <path id="Tracé_6" data-name="Tracé 6" d="M30.167,0,28.15,0a3.541,3.541,0,0,0-3.729,3.826V5.591H22.394a.317.317,0,0,0-.317.317V8.464a.317.317,0,0,0,.317.317h2.027v6.45a.317.317,0,0,0,.317.317h2.645a.317.317,0,0,0,.317-.317V8.781h2.37a.317.317,0,0,0,.317-.317V5.908a.317.317,0,0,0-.317-.317H27.7V4.1c0-.719.171-1.084,1.108-1.084h1.358a.317.317,0,0,0,.317-.317V.32A.317.317,0,0,0,30.167,0Z" transform="translate(-22.077)" fill="#d6da21"/>
</svg>
