<svg xmlns="http://www.w3.org/2000/svg" width="117.027" height="82.856" viewBox="0 0 117.027 82.856">
  <g id="Groupe_14300" data-name="Groupe 14300" transform="translate(1636.672 1326.361)">
    <g id="Groupe_6" data-name="Groupe 6" transform="translate(-1606.416 -1326.361)">
      <path id="Tracé_30" data-name="Tracé 30" d="M-1583.065-1326.361a28.291,28.291,0,0,0-28.258,28.119,28.168,28.168,0,0,0,.736,6.258c.083.37.191.738.288,1.1a2.435,2.435,0,0,0,2.356,1.8,6.24,6.24,0,0,0,5.272-2.9l12.314-19.45a3.089,3.089,0,0,1,2.4-1.465,2.976,2.976,0,0,1,2.707,1.387l6.43,10.156-5.85,4.754a1.4,1.4,0,0,0-.2,1.969,1.4,1.4,0,0,0,1.087.518,1.4,1.4,0,0,0,.882-.314l5.988-4.866,1.616-1.29a2.992,2.992,0,0,1,4.078.323l7.537,8.278.785.864a6.242,6.242,0,0,0,4.614,2.039h.1a2.433,2.433,0,0,0,2.355-1.8c.1-.365.205-.732.289-1.1a28.161,28.161,0,0,0,.736-6.258,28.292,28.292,0,0,0-28.259-28.119" transform="translate(1611.323 1326.361)" fill="#d4d4bb"/>
      <path id="Tracé_31" data-name="Tracé 31" d="M-1559.173-1291.923a17.309,17.309,0,0,1-7.246,1.676c-7.74-.019-15.683-6.188-22.353-1.974,8.4-1.474,14.168,4.639,22.439,3.632a12.915,12.915,0,0,0,7.16-3.334" transform="translate(1615.688 1332.684)" fill="#d4d4bb"/>
      <path id="Tracé_32" data-name="Tracé 32" d="M-1571.9-1287.673c-6.584.314-11.056-1.325-16.065-3.311-4.28-1.37-9.557-1.908-12.931,1.355,3.529-1.481,7.387-.954,10.62.069,2.947,1.038,10.825,5.1,18.376,1.887" transform="translate(1613.341 1333.001)" fill="#d4d4bb"/>
    </g>
    <g id="Groupe_7" data-name="Groupe 7" transform="translate(-1636.672 -1279.619)">
      <path id="Tracé_33" data-name="Tracé 33" d="M-1634.127-1285.731a2.635,2.635,0,0,1,.612.245q.514.245,1.247.514t1.615.513a6.37,6.37,0,0,0,1.713.245,43.777,43.777,0,0,0,6.973-.464,34.539,34.539,0,0,0,4.6-1.028,18.153,18.153,0,0,0,2.692-1.028,3.43,3.43,0,0,1,1.3-.466,1.207,1.207,0,0,1,1,.466,3.618,3.618,0,0,1,.563,1,8.712,8.712,0,0,1,.294,1.419q0,.245-.881,1.223t-2.3,2.521q-1.42,1.542-3.255,3.547t-3.719,4.232q-1.883,2.227-3.719,4.576a53.5,53.5,0,0,0-3.254,4.624,31.523,31.523,0,0,0-2.3,4.355,9.745,9.745,0,0,0-.881,3.743,16.961,16.961,0,0,1,1.982-1.026,22.13,22.13,0,0,1,2.764-1,25.889,25.889,0,0,1,3.547-.759,30.2,30.2,0,0,1,4.38-.292,3.562,3.562,0,0,1,1.932.537,5.571,5.571,0,0,1,1.444,1.3,6.25,6.25,0,0,1,.9,1.59,4.1,4.1,0,0,1,.319,1.419.346.346,0,0,1-.245.343.427.427,0,0,1-.2.049,2.082,2.082,0,0,1-.514-.171q-.416-.17-1.052-.391t-1.444-.417a7.376,7.376,0,0,0-1.737-.2,34.912,34.912,0,0,0-6.9.538,18.034,18.034,0,0,0-3.866,1.174,4.486,4.486,0,0,0-2.055,1.713,2.958,2.958,0,0,1-1.468-.415,7.148,7.148,0,0,1-1.321-.955,9.177,9.177,0,0,1-1.322-1.419,14.139,14.139,0,0,1,.881-4.7,33.641,33.641,0,0,1,2.3-5.066,48.606,48.606,0,0,1,3.255-5.089q1.835-2.519,3.743-4.82a123.447,123.447,0,0,1,10.179-10.717,30.931,30.931,0,0,1-4.355,1.517,45.382,45.382,0,0,1-4.551,1.053,29.339,29.339,0,0,1-5.285.464,5.261,5.261,0,0,1-1.932-.318,3.822,3.822,0,0,1-1.321-.832,3.351,3.351,0,0,1-.759-1.126,3.325,3.325,0,0,1-.245-1.248,1.43,1.43,0,0,1,.172-.636A.518.518,0,0,1-1634.127-1285.731Z" transform="translate(1636.672 1287.199)" fill="#d4d4bb"/>
      <path id="Tracé_34" data-name="Tracé 34" d="M-1606.072-1264.71a34.441,34.441,0,0,1-2.031,3.132,20.6,20.6,0,0,1-2.666,3.033,15.64,15.64,0,0,1-3.107,2.276,6.949,6.949,0,0,1-3.4.9,4.437,4.437,0,0,1-2.618-.709,5.118,5.118,0,0,1-1.566-1.738,7.364,7.364,0,0,1-.783-2.2,11.752,11.752,0,0,1-.221-2.153,11.492,11.492,0,0,1,1-4.772,14.988,14.988,0,0,1,2.5-3.89,13.411,13.411,0,0,1,3.156-2.643,6.033,6.033,0,0,1,2.985-.979,5.1,5.1,0,0,1,2.251.415,3.3,3.3,0,0,1,1.247,1,3.124,3.124,0,0,1,.538,1.247,6.481,6.481,0,0,1,.123,1.15,5.666,5.666,0,0,1-.906,3.156,8.782,8.782,0,0,1-2.324,2.4,10.662,10.662,0,0,1-3.156,1.517,11.969,11.969,0,0,1-3.4.514,10.5,10.5,0,0,0-.171,1.664,5.092,5.092,0,0,0,.2,1.615,2.628,2.628,0,0,0,.758,1.222,2.249,2.249,0,0,0,1.566.489,6.212,6.212,0,0,0,2.766-.66,13.289,13.289,0,0,0,2.569-1.664,15.272,15.272,0,0,0,2.226-2.251q1-1.248,1.787-2.422Zm-6.068-8.221a2.607,2.607,0,0,0-1.737.856,12.124,12.124,0,0,0-1.762,2.153,20.156,20.156,0,0,0-1.542,2.814,17.1,17.1,0,0,0-1.028,2.887,6.951,6.951,0,0,0,2.642-.538,9.329,9.329,0,0,0,2.4-1.419,7.327,7.327,0,0,0,1.737-2.031,4.789,4.789,0,0,0,.661-2.422,6.68,6.68,0,0,0-.049-.759,2.753,2.753,0,0,0-.2-.758,1.465,1.465,0,0,0-.417-.563A1.083,1.083,0,0,0-1612.141-1272.931Z" transform="translate(1639.422 1289.667)" fill="#d4d4bb"/>
      <path id="Tracé_35" data-name="Tracé 35" d="M-1582.621-1262.3a23.005,23.005,0,0,1-2.079,2.887,15.614,15.614,0,0,1-2.5,2.4,4.355,4.355,0,0,1-2.643,1,4.638,4.638,0,0,1-2.52-.66,2.782,2.782,0,0,1-1.1-2.471,7.377,7.377,0,0,1,.538-2.57q.587-1.688,1.321-3.474t1.37-3.352a8.672,8.672,0,0,0,.685-2.251,2.109,2.109,0,0,1,.025-.221,1.437,1.437,0,0,0,0-.366.537.537,0,0,0-.2-.343.776.776,0,0,0-.515-.147,3.455,3.455,0,0,0-2.079.856,14.767,14.767,0,0,0-2.178,2.129q-.392,1.174-.954,2.5t-1.1,2.594q-.246.636-.685,1.713t-.783,2.2a15.123,15.123,0,0,0-.489,2.079,1.659,1.659,0,0,0,.2,1.345,2.339,2.339,0,0,1-1,.391,3.745,3.745,0,0,1-1.346.049,2.225,2.225,0,0,1-1.174-.587,2.442,2.442,0,0,1-.49-1.909,9.958,9.958,0,0,1,.685-2.543q.636-1.714,1.468-3.621.782-1.957,1.468-3.7a13.055,13.055,0,0,0,.783-2.422c0-.032-.008-.115-.024-.245a1.212,1.212,0,0,0-.123-.391.907.907,0,0,0-.318-.343,1,1,0,0,0-.563-.147,3.588,3.588,0,0,0-2.275,1.028,19.973,19.973,0,0,0-2.373,2.447l-3.572,9.933a3.43,3.43,0,0,0-.245,1.053,1.643,1.643,0,0,0,.1.611.843.843,0,0,0,.343.343,1.949,1.949,0,0,1-.955.391,3.743,3.743,0,0,1-1.345.049,2.453,2.453,0,0,1-1.2-.562,2.485,2.485,0,0,1-.562-1.934,6.66,6.66,0,0,1,.318-1.688q.319-1.1.783-2.471t1-2.814q.537-1.443,1.052-2.715t.881-2.227q.367-.954.466-1.3a4.776,4.776,0,0,0,.171-.979q.025-.44.025-.734c-.033-.228-.066-.44-.1-.636h4.109a.627.627,0,0,1,.49.22.492.492,0,0,1,.1.515l-.881,2.3a16.034,16.034,0,0,1,2.594-2.129,4.9,4.9,0,0,1,2.691-.856,3.56,3.56,0,0,1,2.3.832,2.784,2.784,0,0,1,1.077,2.153,15.038,15.038,0,0,1,2.643-2.129,5.138,5.138,0,0,1,2.74-.856,4.093,4.093,0,0,1,1.3.22,2.725,2.725,0,0,1,1.125.71,2.794,2.794,0,0,1,.66,1.223,3.842,3.842,0,0,1-.049,1.811,14.149,14.149,0,0,1-.66,2.128q-.467,1.2-1,2.447t-1.028,2.423q-.489,1.175-.783,2.128a4.762,4.762,0,0,0-.269,1.517.51.51,0,0,0,.562.563,3.394,3.394,0,0,0,1.958-.685,11.835,11.835,0,0,0,1.885-1.664,21.759,21.759,0,0,0,1.663-2.031q.759-1.051,1.3-1.835l.685.343Q-1581.717-1263.794-1582.621-1262.3Z" transform="translate(1641.636 1289.731)" fill="#d4d4bb"/>
      <path id="Tracé_36" data-name="Tracé 36" d="M-1570.156-1267.066a14.563,14.563,0,0,1-.24,4.013,11.689,11.689,0,0,1-1.206,3.279,5.739,5.739,0,0,0,2.425-1.077,8.525,8.525,0,0,0,2.2-2.447l.636.44a10.1,10.1,0,0,1-3.028,3.376,7.705,7.705,0,0,1-3.212,1.223,10.478,10.478,0,0,1-3.475,3.033,8.106,8.106,0,0,1-3.768,1.028,3.99,3.99,0,0,1-1.174-.2,3.7,3.7,0,0,1-1.223-.66,4.493,4.493,0,0,1-1.053-1.249,5.089,5.089,0,0,1-.611-2.005l-.587,1.614a3.436,3.436,0,0,0-.245,1.053,1.642,1.642,0,0,0,.1.611.843.843,0,0,0,.343.343,1.948,1.948,0,0,1-.955.392,3.744,3.744,0,0,1-1.345.049,2.361,2.361,0,0,1-1.2-.587,2.494,2.494,0,0,1-.562-1.909,11.27,11.27,0,0,1,.611-2.52q.614-1.932,1.542-4.551t2.055-5.5q1.125-2.888,2.079-5.407t1.64-4.306q.684-1.787.783-2.129a3.977,3.977,0,0,0,.2-1.664q-.05-.342-.1-.685h4.16a.566.566,0,0,1,.44.245.47.47,0,0,1,.1.489l-4.747,12.772a9.342,9.342,0,0,1,2.4-1.689,6.142,6.142,0,0,1,2.692-.611,3.558,3.558,0,0,1,3.023,1.517A7.2,7.2,0,0,1-1570.156-1267.066Zm-9.249,9.787a2.728,2.728,0,0,0,1.542-.515,8.008,8.008,0,0,0,1.492-1.345,1.08,1.08,0,0,1-.343-.783,1.426,1.426,0,0,1,.2-.759,1.13,1.13,0,0,1,.587-.464,1.067,1.067,0,0,1,.832.049,15.961,15.961,0,0,0,1.346-3.108,11.488,11.488,0,0,0,.562-3.009,5.855,5.855,0,0,0-.122-1.713,2.756,2.756,0,0,0-.44-.979,1.359,1.359,0,0,0-.636-.465,4.085,4.085,0,0,0-.71-.171,3,3,0,0,0-1.688.343,7.342,7.342,0,0,0-1.811,1.3,12.171,12.171,0,0,0-1.737,2.1,13.67,13.67,0,0,0-1.419,2.814l-.392,1.272a1.144,1.144,0,0,1,.685-.514,1.613,1.613,0,0,1,.832-.024.512.512,0,0,1,.343.2.156.156,0,0,1-.049.245,3.1,3.1,0,0,0-.906,1.419,4.8,4.8,0,0,0-.269,1.835,2.931,2.931,0,0,0,.538,1.591A1.786,1.786,0,0,0-1579.4-1257.279Z" transform="translate(1646.028 1287.913)" fill="#d4d4bb"/>
      <path id="Tracé_37" data-name="Tracé 37" d="M-1570.236-1264.12l-.1-.147a20.576,20.576,0,0,0,1.345-2.985,17.088,17.088,0,0,0,.808-3.132,4.073,4.073,0,0,1-1.223-.685,2.843,2.843,0,0,1-.832-1.174,6.225,6.225,0,0,1-.489-2.521,4.9,4.9,0,0,1,.464-1.981,3.509,3.509,0,0,1,1.053-1.3,2.089,2.089,0,0,1,1.223-.465,4.686,4.686,0,0,1,1.125.123,4.241,4.241,0,0,1,.881.316,2.418,2.418,0,0,1,.734.488,20.444,20.444,0,0,0-1.37,2.978,6.416,6.416,0,0,0-.294,1.074,2.7,2.7,0,0,0-.025.952,1.058,1.058,0,0,0,.367.658,1.263,1.263,0,0,0,.832.245,11.51,11.51,0,0,0,2.569-.245,10.4,10.4,0,0,0,1.738-.536,3.953,3.953,0,0,0,1.223-.782,2.17,2.17,0,0,1,1.076.39,2.962,2.962,0,0,1,.734.878,3.326,3.326,0,0,1,.343,1.66,5.992,5.992,0,0,1-.44,1.978q-.441,1.2-1.028,2.539l-1.175,2.684a25.189,25.189,0,0,0-.93,2.417,4.446,4.446,0,0,0-.27,1.757q.073.684.857.684a3.711,3.711,0,0,0,2.006-.661,12.658,12.658,0,0,0,1.981-1.59,16.612,16.612,0,0,0,1.738-1.983q.781-1.051,1.321-1.834l.685.343a26.45,26.45,0,0,1-1.591,2.692,20.565,20.565,0,0,1-2.3,2.872,14.813,14.813,0,0,1-2.79,2.3,5.723,5.723,0,0,1-3.107.944,3.264,3.264,0,0,1-2.789-1,3.7,3.7,0,0,1-.661-2.447,9.521,9.521,0,0,1,.661-2.96q.587-1.516,1.076-2.545.636-1.321,1-2.227t.563-1.517a5.882,5.882,0,0,0,.245-1,2.063,2.063,0,0,0,0-.636.563.563,0,0,0-.44-.538,1.46,1.46,0,0,0-.343-.049,4.5,4.5,0,0,1-.979.1,7.588,7.588,0,0,1-2.2-.147,30.874,30.874,0,0,1-1.2,3.181q-.709,1.615-1.541,3.132Z" transform="translate(1649.436 1288.881)" fill="#d4d4bb"/>
      <path id="Tracé_38" data-name="Tracé 38" d="M-1542.359-1258.691a3.1,3.1,0,0,0,1.836-.709,11.857,11.857,0,0,0,1.834-1.713,22.728,22.728,0,0,0,1.639-2.1l1.3-1.883.685.343q-.539.979-1.419,2.471a21.215,21.215,0,0,1-2.055,2.887,15.11,15.11,0,0,1-2.52,2.4,4.517,4.517,0,0,1-2.717,1,5.341,5.341,0,0,1-1.077-.122,3.371,3.371,0,0,1-1.1-.44,2.612,2.612,0,0,1-.857-.881,2.849,2.849,0,0,1-.343-1.492,7.05,7.05,0,0,1-2.055,2.005,4.4,4.4,0,0,1-2.349.734,5.393,5.393,0,0,1-2.251-.464,5.137,5.137,0,0,1-1.76-1.3,5.481,5.481,0,0,1-1.1-1.956,7.009,7.009,0,0,1-.317-2.447,17.285,17.285,0,0,1,.979-5.212,11.428,11.428,0,0,1,2.152-3.694,8.833,8.833,0,0,1,2.961-2.2,8.232,8.232,0,0,1,3.4-.734,3.622,3.622,0,0,1,1.1.22,3.849,3.849,0,0,1,1.247.71,4.619,4.619,0,0,1,1.028,1.247,3.6,3.6,0,0,1,.44,1.836l.538-1.615a4.788,4.788,0,0,0,.172-.93c.015-.261.024-.506.024-.734-.032-.228-.066-.457-.1-.685l4.111.049a.56.56,0,0,1,.465.22.446.446,0,0,1,.073.466l-4.16,11.5a8.018,8.018,0,0,0-.464,2.275Q-1543.044-1258.69-1542.359-1258.691Zm-8.417.2a2.745,2.745,0,0,0,1.859-.733,7.251,7.251,0,0,0,1.468-1.836,16.726,16.726,0,0,0,1.125-2.373q.489-1.273.881-2.3a10.094,10.094,0,0,0,.489-2.887,5.968,5.968,0,0,0-.343-2.153,3.254,3.254,0,0,0-.856-1.321,1.611,1.611,0,0,0-1.053-.44,3.774,3.774,0,0,0-2.251.783,7.1,7.1,0,0,0-1.884,2.128,12.283,12.283,0,0,0-1.3,3.206,15.947,15.947,0,0,0-.49,4.062,7.747,7.747,0,0,0,.221,2.079,3.037,3.037,0,0,0,.562,1.151,1.608,1.608,0,0,0,.759.513A2.812,2.812,0,0,0-1550.776-1258.495Z" transform="translate(1652.095 1289.715)" fill="#d4d4bb"/>
    </g>
    <path id="Tracé_39" data-name="Tracé 39" d="M-1555.922-1282.732a.439.439,0,0,0,.13-.021.439.439,0,0,1-.13.021.6.6,0,0,1-.244-.053A.6.6,0,0,0-1555.922-1282.732Z" transform="translate(15.584 8.435)" fill="#d4d4bb"/>
    <path id="Tracé_40" data-name="Tracé 40" d="M-1557.839-1279.277a2.484,2.484,0,0,0-.457-.387,8.677,8.677,0,0,0,1.595-1.01,8.152,8.152,0,0,0,.668-.629,5.16,5.16,0,0,0,.6-.766,4.634,4.634,0,0,0,.45-.913,3.44,3.44,0,0,0,.2-1.074,2.853,2.853,0,0,0-.255-1.283,2.776,2.776,0,0,0-.821-1.022,3.989,3.989,0,0,0-1.3-.655,5.776,5.776,0,0,0-1.684-.233,8.729,8.729,0,0,0-2.485.327,7.962,7.962,0,0,0-1.912.841,6.285,6.285,0,0,0-1.4,1.171,7.707,7.707,0,0,0-.939,1.3,5.278,5.278,0,0,0-.518,1.239,3.534,3.534,0,0,0-.134.994,1.205,1.205,0,0,0,.236.727,1.493,1.493,0,0,0,.5.4,1.752,1.752,0,0,0,.609.168c.2.018.385.026.55.026a.328.328,0,0,0,.292-.167.306.306,0,0,0,.008-.32,1.455,1.455,0,0,1-.191-.788,4.188,4.188,0,0,1,.218-1.376,4.857,4.857,0,0,1,.568-1.145,5.462,5.462,0,0,1,.773-.909,6.3,6.3,0,0,1,.827-.665,4.342,4.342,0,0,1,.727-.4,1.876,1.876,0,0,1,.374-.121.505.505,0,0,1,.009.059,4.194,4.194,0,0,1-.009.425,4.3,4.3,0,0,1-.264,1.035c-.166.476-.376,1.024-.623,1.629s-.522,1.264-.8,1.93-.552,1.33-.8,1.96-.457,1.2-.621,1.713a4.329,4.329,0,0,0-.25,1.221,2.8,2.8,0,0,0,.248,1.266,2.028,2.028,0,0,0,.63.759,2.18,2.18,0,0,0,.819.36,3.9,3.9,0,0,0,.789.09,4.623,4.623,0,0,0,1.962-.385,4.139,4.139,0,0,0,1.351-.979,4,4,0,0,0,.789-1.33,5.146,5.146,0,0,0,.294-1.427,2.188,2.188,0,0,0-.176-1A2.362,2.362,0,0,0-1557.839-1279.277Zm-1.272,2.893a3.661,3.661,0,0,1-.747,1.017,3.51,3.51,0,0,1-.966.655,2.355,2.355,0,0,1-.957.233.513.513,0,0,1-.506-.246,1.5,1.5,0,0,1-.15-.707,3.231,3.231,0,0,1,.227-1.1,5.147,5.147,0,0,1,.6-1.154,3.914,3.914,0,0,1,.851-.893,1.577,1.577,0,0,1,.958-.349.845.845,0,0,1,.411.1,1.085,1.085,0,0,1,.327.273,1.306,1.306,0,0,1,.222.4,1.061,1.061,0,0,1,.063.434A3.241,3.241,0,0,1-1559.112-1276.384Zm.214-4.064a7.776,7.776,0,0,1-2.129.759c.134-.319.29-.7.473-1.139.226-.547.445-1.1.652-1.658s.389-1.079.54-1.554a4.025,4.025,0,0,0,.23-1.081,1.674,1.674,0,0,0-.1-.631,1.757,1.757,0,0,0-.216-.4l-.056-.068c.111-.006.22-.009.326-.009a4.138,4.138,0,0,1,1.025.12,3.842,3.842,0,0,1,.6.226,1.62,1.62,0,0,1,.508.38,1.965,1.965,0,0,1,.359.6,2.331,2.331,0,0,1,.139.85,3.8,3.8,0,0,1-.2,1.271,3.829,3.829,0,0,1-.53,1,4.044,4.044,0,0,1-.75.767A6.211,6.211,0,0,1-1558.9-1280.448Z" transform="translate(13.633 7.571)" fill="#d4d4bb"/>
    <path id="Tracé_41" data-name="Tracé 41" d="M-1556.4-1282.555a.555.555,0,0,0,.26.246.738.738,0,0,0,.294.062.717.717,0,0,0,.34-.1,1.335,1.335,0,0,0,.326-.259,2.647,2.647,0,0,0,.275-.346,1.4,1.4,0,0,0,.191-.431,1.048,1.048,0,0,0-.1-.875.774.774,0,0,0-.68-.38,1.047,1.047,0,0,0-.436.1l-.009,0a1.208,1.208,0,0,0-.341.3,1.223,1.223,0,0,0-.227.591,2.443,2.443,0,0,0-.017.664A1.2,1.2,0,0,0-1556.4-1282.555Z" transform="translate(15.51 8.076)" fill="#d4d4bb"/>
    <path id="Tracé_42" data-name="Tracé 42" d="M-1547.338-1279.145a.131.131,0,0,0-.073-.023l-.025,0a.13.13,0,0,0-.083.057,3.092,3.092,0,0,1-.958,1.029,1.151,1.151,0,0,1-.59.191.752.752,0,0,1-.148-.014,5.147,5.147,0,0,0,.487-2.182,4.368,4.368,0,0,0-.033-.523,5.825,5.825,0,0,1-1.06.378c0,.035,0,.067,0,.1a3.692,3.692,0,0,1-.118.914,4.752,4.752,0,0,1-.288.815.5.5,0,0,0-.4.249.524.524,0,0,0-.05.481,2.018,2.018,0,0,1-.524.448,1.321,1.321,0,0,1-.667.173.6.6,0,0,1-.437-.235,1.239,1.239,0,0,1-.237-.8,5.536,5.536,0,0,1,.144-1.422,4.267,4.267,0,0,1,.448-1.146,2.479,2.479,0,0,1,.6-.705l-.016-.006a5.412,5.412,0,0,1-1.013-.559,4.088,4.088,0,0,0-.56.5,4.928,4.928,0,0,0-.9,1.41,4.943,4.943,0,0,0-.3.982,5.389,5.389,0,0,1-.366.624,5.226,5.226,0,0,1-.535.672,3.044,3.044,0,0,1-.609.5,1.153,1.153,0,0,1-.6.19c-.132,0-.167-.049-.184-.1a1.176,1.176,0,0,1-.055-.362,2.319,2.319,0,0,1,.183-.643c.128-.341.279-.732.452-1.162s.362-.89.555-1.346.369-.888.507-1.257a.294.294,0,0,0-.055-.3.32.32,0,0,0-.255-.135h-1.479a.126.126,0,0,0-.1.043.129.129,0,0,0-.03.1c.012.081.023.162.035.244a1.29,1.29,0,0,1-.066.537c-.023.078-.074.221-.153.425s-.18.45-.295.718-.236.572-.358.892-.237.634-.34.925-.193.57-.264.816a2.362,2.362,0,0,0-.109.609,1.3,1.3,0,0,0,.408,1.026,1.336,1.336,0,0,0,.9.353,1.984,1.984,0,0,0,1.059-.323,4.455,4.455,0,0,0,.931-.788,7.084,7.084,0,0,0,.716-.948,2.805,2.805,0,0,0,.1.55,2.137,2.137,0,0,0,.4.758,2.039,2.039,0,0,0,.649.519,1.847,1.847,0,0,0,.849.2,2.817,2.817,0,0,0,1.5-.411,3.727,3.727,0,0,0,1.083-1.026c.078.007.155.012.231.012a2.231,2.231,0,0,0,1.064-.269,3.8,3.8,0,0,0,1.291-1.43.127.127,0,0,0-.036-.17Z" transform="translate(15.179 8.519)" fill="#d4d4bb"/>
    <g id="Groupe_8" data-name="Groupe 8" transform="translate(-1538.348 -1279.82)">
      <path id="Tracé_43" data-name="Tracé 43" d="M-1551.292-1284.927a7.424,7.424,0,0,0-2.605-1.856s-1.725,4.1,2.029,5.671a8.128,8.128,0,0,0-1.645-4.236,4.662,4.662,0,0,1,1.528,2.212A3.852,3.852,0,0,1-1551.292-1284.927Z" transform="translate(1554.293 1287.481)" fill="#d4d4bb"/>
      <path id="Tracé_44" data-name="Tracé 44" d="M-1547.413-1287.368s1.166,6.284-3.782,7.479c0,0,.627-3.613,1.952-5.229,0,0-1.543,1.307-2.387,4.99C-1551.631-1280.128-1554.217-1285.544-1547.413-1287.368Z" transform="translate(1554.715 1287.368)" fill="#d4d4bb"/>
    </g>
  </g>
</svg>
