<svg id="Groupe_263" data-name="Groupe 263" xmlns="http://www.w3.org/2000/svg" width="54.826" height="34.392" viewBox="0 0 54.826 34.392">
  <path id="Tracé_343" data-name="Tracé 343" d="M566.341,47.272a9.446,9.446,0,0,1-7.36-2.944,10.53,10.53,0,0,1-2.676-7.36,19.155,19.155,0,0,1,6.089-14.051A50.924,50.924,0,0,1,577.314,12.88l1.2,3.078a27.19,27.19,0,0,0-7.226,5.353q-3.078,3.212-3.078,6.29a2.305,2.305,0,0,0,.937,2.007,4.3,4.3,0,0,0,2.543.669,6.653,6.653,0,0,1,4.818,1.807,6.469,6.469,0,0,1,1.873,4.884,9.526,9.526,0,0,1-3.346,7.226A12.341,12.341,0,0,1,566.341,47.272Z" transform="translate(-523.692 -12.88)" fill="#d6da21"/>
  <path id="Tracé_344" data-name="Tracé 344" d="M566.341,47.272a9.446,9.446,0,0,1-7.36-2.944,10.53,10.53,0,0,1-2.676-7.36,19.155,19.155,0,0,1,6.089-14.051A50.924,50.924,0,0,1,577.314,12.88l1.2,3.078a27.19,27.19,0,0,0-7.226,5.353q-3.078,3.212-3.078,6.29a2.305,2.305,0,0,0,.937,2.007,4.3,4.3,0,0,0,2.543.669,6.653,6.653,0,0,1,4.818,1.807,6.469,6.469,0,0,1,1.873,4.884,9.526,9.526,0,0,1-3.346,7.226A12.341,12.341,0,0,1,566.341,47.272Z" transform="translate(-556.304 -12.88)" fill="#d6da21"/>
</svg>
