<svg id="Groupe_194" data-name="Groupe 194" xmlns="http://www.w3.org/2000/svg" width="13.933" height="13.936" viewBox="0 0 13.933 13.936">
  <path id="Tracé_7" data-name="Tracé 7" d="M14.347,4.1a5.092,5.092,0,0,0-.324-1.691A3.57,3.57,0,0,0,11.984.368,5.105,5.105,0,0,0,10.293.044C9.547.008,9.31,0,7.418,0S5.29.008,4.546.041A5.094,5.094,0,0,0,2.856.365a3.4,3.4,0,0,0-1.236.806A3.431,3.431,0,0,0,.817,2.4,5.106,5.106,0,0,0,.493,4.094C.457,4.84.449,5.077.449,6.969S.457,9.1.49,9.841a5.092,5.092,0,0,0,.324,1.691,3.569,3.569,0,0,0,2.039,2.039,5.106,5.106,0,0,0,1.691.324c.743.033.98.041,2.872.041s2.129-.008,2.872-.041a5.091,5.091,0,0,0,1.691-.324,3.564,3.564,0,0,0,2.039-2.039,5.109,5.109,0,0,0,.324-1.691c.033-.743.041-.98.041-2.872S14.379,4.84,14.347,4.1Zm-1.255,5.69a3.82,3.82,0,0,1-.24,1.293A2.312,2.312,0,0,1,11.529,12.4a3.833,3.833,0,0,1-1.293.239c-.735.033-.955.041-2.815.041s-2.083-.008-2.815-.041A3.818,3.818,0,0,1,3.313,12.4a2.144,2.144,0,0,1-.8-.52,2.167,2.167,0,0,1-.52-.8A3.834,3.834,0,0,1,1.753,9.79c-.033-.735-.041-.956-.041-2.815s.008-2.083.041-2.815a3.818,3.818,0,0,1,.239-1.293,2.118,2.118,0,0,1,.523-.8,2.163,2.163,0,0,1,.8-.52,3.836,3.836,0,0,1,1.293-.24c.735-.033.956-.041,2.815-.041s2.083.008,2.815.041a3.82,3.82,0,0,1,1.293.24,2.143,2.143,0,0,1,.8.52,2.166,2.166,0,0,1,.52.8,3.835,3.835,0,0,1,.24,1.293c.033.735.041.955.041,2.815S13.125,9.052,13.092,9.787Zm0,0" transform="translate(-0.449 0)" fill="#d6da21"/>
  <path id="Tracé_8" data-name="Tracé 8" d="M128.529,124.5a3.58,3.58,0,1,0,3.58,3.58A3.581,3.581,0,0,0,128.529,124.5Zm0,5.9a2.322,2.322,0,1,1,2.322-2.322A2.323,2.323,0,0,1,128.529,130.4Zm0,0" transform="translate(-121.56 -121.111)" fill="#d6da21"/>
  <path id="Tracé_9" data-name="Tracé 9" d="M364.121,89.437a.836.836,0,1,1-.836-.836A.836.836,0,0,1,364.121,89.437Zm0,0" transform="translate(-352.594 -86.189)" fill="#d6da21"/>
</svg>
