<svg xmlns="http://www.w3.org/2000/svg" width="41.478" height="41.99" viewBox="0 0 41.478 41.99">
  <g id="menu_2_" data-name="menu (2)" transform="translate(-45.596 -42.998)">
    <path id="Tracé_51513" data-name="Tracé 51513" d="M84.948,49.632c-9.828.195-19.749,1.039-29.676.283-8.006-.616-9.875,1.616-9.636-4.251-.6-3.726,8.1-2.014,9.911-2.51,9.693-.159,17.876-.356,28.065.3,2.035.018,3.342.3,3.038,2.9C86.661,48.027,86.749,49.419,84.948,49.632Zm0-.156c2.037-.1,1.6-3.266,1.107-4.82-1.039-1.078-2.1-.26-4.114-.343-32.833,1.559-35.895-2.144-35.653,1.863.047,1.541-.52,2.684,1.133,3.118,4.127.088,8.217-.13,12.26-.3C68.169,48.468,76.531,49.427,84.948,49.477Z" transform="translate(-0.008)" fill="#5b5c2c"/>
    <path id="Tracé_51514" data-name="Tracé 51514" d="M158.7,133.923c-1.648.068-3.378.764-5.2,0C154.521,133.125,157.349,133.624,158.7,133.923Z" transform="translate(-79.864 -66.979)" fill="#5b5c2c"/>
    <path id="Tracé_51515" data-name="Tracé 51515" d="M71.037,116.426c-28.525,1.481-25.269.73-25.378-3.6-.494-4.069,6.4-1.918,8.656-2.547,10.241-.447,19.84-.652,30.328-.309,2.149-.125,2.669,1.876,2.339,3.763.068,2.58-1,3.175-3.435,2.858-.548-.159-1.939.117-2.128-.312,4.457-.457,5.023.673,4.418-4.418-.494-1.211-4.264-.236-5.566-.45-20.742.655-34.273-2.011-34.029.546-.434,5.517,1.406,3.552,5.3,3.737C58.039,115.721,65.141,115.474,71.037,116.426Z" transform="translate(0 -49.442)" fill="#5b5c2c"/>
    <path id="Tracé_51516" data-name="Tracé 51516" d="M84.948,183.381c-9.828.195-19.749,1.039-29.676.286-8-.624-9.87,1.616-9.636-4.262-.6-3.726,8.1-2.014,9.911-2.51,9.693-.159,17.876-.356,28.065.3,2.035.018,3.342.3,3.038,2.9C86.661,181.778,86.749,183.168,84.948,183.381Zm0-.156c2.037-.1,1.6-3.264,1.107-4.818-1.039-1.081-2.1-.26-4.114-.346-32.833,1.559-35.895-2.141-35.653,1.863.047,1.541-.52,2.687,1.133,3.118,4.127.088,8.217-.133,12.26-.3C68.169,182.219,76.531,183.178,84.948,183.225Z" transform="translate(-0.008 -98.987)" fill="#5b5c2c"/>
  </g>
</svg>
