<svg id="send" xmlns="http://www.w3.org/2000/svg" width="21.348" height="21.315" viewBox="0 0 21.348 21.315">
  <path id="Tracé_264" data-name="Tracé 264" d="M14.76,22.65a2.3,2.3,0,0,1-2-1.23L9.28,15.06a.8.8,0,0,0-.34-.34L2.58,11.29A2.34,2.34,0,0,1,3,7L19.57,1.47h0a2.35,2.35,0,0,1,3,3L17,21.05a2.31,2.31,0,0,1-2,1.59ZM20,2.9,3.43,8.43a.84.84,0,0,0-.58.73.83.83,0,0,0,.44.81L9.65,13.4a2.29,2.29,0,0,1,.95.95L14,20.71a.83.83,0,0,0,.81.44.84.84,0,0,0,.73-.58L21.1,4A.84.84,0,0,0,20,2.9Z" transform="translate(-1.357 -1.335)" fill="#fff"/>
  <path id="Tracé_265" data-name="Tracé 265" d="M9.67,15.08a.71.71,0,0,1-.53-.22.74.74,0,0,1,0-1.06L20.9,2A.778.778,0,1,1,22,3.1L10.2,14.86a.74.74,0,0,1-.53.22Z" transform="translate(-1.357 -1.335)" fill="#fff"/>
</svg>
