<svg xmlns="http://www.w3.org/2000/svg" width="428" height="63.102" viewBox="0 0 428 63.102">
  <path id="Soustraction_2" data-name="Soustraction 2" d="M72.019,63.1c.356-.71.729-1.456,1.028-2.056l.147-.294.2-.393c-1.207.691-2.435,1.393-3.623,2.071l-.009.005L68.59,63.1h0c.39-.586.8-1.2,1.372-2.057l-1.153.193L61.73,62.416c1.566-.977,3.152-1.969,4.687-2.928l.8-.5c-.871.219-1.776.445-2.573.644l-.17.042a8.915,8.915,0,0,1,2.964-3.409,43.189,43.189,0,0,1,5.5-3.616c1.921-1.092,4.079-2.195,6.242-3.189,1.947-.9,3.788-1.652,5.184-2.13a6.32,6.32,0,0,1-.611,1.2c-.262.41-.324.508-.074,1.543a16.925,16.925,0,0,1,5.606-4.33c.84-.441,1.885-.989,3.309-1.844a4.579,4.579,0,0,1-.648,1.923c-.166.255-.166.255.265.916.1.156.228.349.382.593,1.1-1.1,2.284-2.284,3.429-3.431-2.07-.279-2.077-.681-2.08-.9,0-.091,0-.151-.166-.151a13.711,13.711,0,0,0-1.869.362,15.022,15.022,0,0,1,2.367-2.924,4.426,4.426,0,0,1,2.988-1.273,4.22,4.22,0,0,1,.818.082l2.438-2.133.294-.257,2.756-2.411,1.92,1.28.2.132.129.086,1.867,1.245-.663-1.658-.708-1.771a6.362,6.362,0,0,1,.64-.035c.13,0,.236,0,.324.009l.037,0c.073,0,.141.008.206.008.324,0,.565-.088,1.536-.67h-1.372c.143-.288.29-.58.432-.864l.013-.026.241-.482a9.22,9.22,0,0,1-2.183.293,8.59,8.59,0,0,1-3.592-.933,19.676,19.676,0,0,0-4.514-1.418,14.524,14.524,0,0,1-1.505,1.984,4.032,4.032,0,0,0-.835,1.211,7.911,7.911,0,0,0-.4,2.292,12.441,12.441,0,0,0-3.626-.64,6.342,6.342,0,0,0-3.144.783,9.186,9.186,0,0,0-2.831,2.6A5.323,5.323,0,0,0,88.2,36.611c.127-.107.2-.171.29-.171.137,0,.29.162.7.6l0,0c.171.181.383.405.657.684-.346.382-.544.577-.651.683-.083.082-.111.11-.11.127s.009.015.021.025c.066.051.24.187.054,1.223a34.539,34.539,0,0,1,3.12-2.022,4.608,4.608,0,0,1,2.117-.687,2.484,2.484,0,0,1,1.622.651v.686a31.527,31.527,0,0,0-4.777,1.7,9.3,9.3,0,0,1-4.323,1.053h0c-.158,0-.326,0-.5-.009.419.421.88.883,1.372,1.372h3.429q-.172.518-.346,1.037t-.34,1.021c-.745-.024-1.344-.1-1.873-.166h0a9.329,9.329,0,0,0-1.1-.1,1.576,1.576,0,0,0-1.326.572,7.784,7.784,0,0,0-1.181,2.44c-2.221-1.218-2.966-1.281-3.51-1.328-.582-.05-.967-.082-2.665-1.418l-.15.453c-.164.495-.35,1.055-.535,1.607a4.407,4.407,0,0,0,.759.081,2.042,2.042,0,0,0,.224-.012l.043,0a.755.755,0,0,1,.08-.007c.075,0,.1.035.195.2a11.168,11.168,0,0,0,.757,1.112c-1.331-.223-2.684-.448-3.993-.666l-.045-.007-.077-.013c.624-.17.9-.309.93-.465s-.2-.318-.511-.543a3.946,3.946,0,0,1-1.105-1.052l-.057.087c-.426.64-.866,1.3-1.314,1.973h.043c.087,0,.208-.008.348-.016l.071,0c.175-.011.361-.021.535-.021.431,0,.665.063.713.193s-.069.3-.338.533c-1.387.23-2.745.456-4.115.686v.686c.665-.223,1.341-.448,2-.666l.046-.015.015-.005a8.668,8.668,0,0,1-2.8,2.354l-.007,0c-.2.122-.4.247-.618.384l-.012-.032h0c-.314-.858-.389-1.062-.472-1.062a.176.176,0,0,0-.091.05c-.016.013-.036.028-.059.044a.529.529,0,0,1-.315.094,2.27,2.27,0,0,1-1.109-.464c-.02.014-2.192,1.486-4.689,3.555a49.352,49.352,0,0,0-3.866,3.53,21.509,21.509,0,0,0-3.106,3.888c-.408.037-.762.063-1.075.086h-.01c-1.858.135-2.357.171-5.087,1.971l-.211-.07c-.569-.189-1.215-.4-1.847-.616,1.158-1.391,2.381-2.858,3.363-4.036l.066-.079c-.882.006-1.7.027-2.423.046s-1.378.035-1.978.035a6.585,6.585,0,0,1-3.832-.767,7.008,7.008,0,0,0,1.339-.976c.172-.208.13-.361.054-.639a4.947,4.947,0,0,1-.021-2.5c-.589.143-1.044.245-1.409.327a5.245,5.245,0,0,0-2.9,1.367l0,0-.492.36c.2-.814.416-1.662.6-2.41l.083-.333a49.409,49.409,0,0,1-4.962,2.861,37.7,37.7,0,0,1-4.334,1.838,57.7,57.7,0,0,1-7.839,2.015l-.7.144v-.686a8.573,8.573,0,0,1,.732-.591c.149-.107.149-.107.195-.271a8.77,8.77,0,0,1,.445-1.195l-.9-.3-.131-.044-1.029-.343-.323.258-.07.056c-.995.8-2.024,1.62-3.036,2.429.265-.661.532-1.329.79-1.974l.068-.171.513-1.284-2.5,1.874-.284.213-2.7,2.028-.051-.01c-.987-.2-2.215-.441-3.378-.676l.07-.211c.189-.569.4-1.215.616-1.847L15.09,53.5c-.387.291-.734.565-1.04.807l-.005,0a12.833,12.833,0,0,1-2.294,1.564,13.21,13.21,0,0,1-3.519,1.054,2.956,2.956,0,0,1-.317-1.053c-.053-.367-.082-.569-.48-.569a5.508,5.508,0,0,0-1.263.251c-.082,0-.164,0-.243,0a5.333,5.333,0,0,0-2.387.488A6.587,6.587,0,0,0,2.082,57.09,4.439,4.439,0,0,1,0,58.3c.164-.284.318-.543.454-.772l0-.008a5.218,5.218,0,0,0,.913-4.707c.62.042,1.26.064,1.9.064a52.86,52.86,0,0,0,9.639-1.155l.032-.006a53.156,53.156,0,0,1,9.739-1.16,27.914,27.914,0,0,1,3.379.2c-.437-.439-.9-.9-1.372-1.372l1.372-1.372a3.292,3.292,0,0,0,1.784.512,10.108,10.108,0,0,0,1.571-.18l.491-.079a19.986,19.986,0,0,1,3.222-.259c.158,0,.319,0,.478.005-.108-.433-.218-.874-.325-1.3l-.021-.085c-.109-.435-.225-.9-.34-1.36l1.3,1.3.433.434,1.7,1.7c-.015-.167-.029-.327-.046-.518-.1-1.164-.2-2.263-.19-3.241a6.739,6.739,0,0,1,.46-2.618,4.3,4.3,0,0,1,1.708-1.96A10.2,10.2,0,0,1,41.839,39.1V36.353c-2.469,1.189-5.116,2.75-7.919,4.4h0a112.214,112.214,0,0,1-9.929,5.424,33.575,33.575,0,0,1-4.869,1.839,16.942,16.942,0,0,1-4.607.705c-.269,0-.536-.009-.8-.026.293,1.113.581,1.363.7,1.47.092.08.092.08-.067.3-.12.167-.32.446-.638.972V50.071c-.41.2-.889.442-1.372.686a8.334,8.334,0,0,1,1-1.917,4.866,4.866,0,0,1,1.138-1.145,7.216,7.216,0,0,1,2.531-1.009A6.028,6.028,0,0,0,21.263,43.9l-.011,0A11.669,11.669,0,0,1,19.893,44c-.836,0-1.352-.179-1.579-.546s-.153-.9.206-1.619l-.686-1.372c.451-.224.912-.455,1.371-.686l2.058,2.057,1.1-1.47L23.32,39.1l-.525.191h0a3.442,3.442,0,0,1-.819.255c-.09,0-.134-.04-.214-.112a1.969,1.969,0,0,0-.5-.335L19.49,38.5l-.183-.061-2.159-.72q.155-.465.31-.931l.033-.1q.172-.514.343-1.029H47.328c-.537.136-.813.3-.821.476-.01.251.482.544,1.506.9-.186-.737-.369-1.472-.572-2.287l-.114-.456h2.058l.063.07.092.1c.65.721.893.99,1.087.99.12,0,.218-.1.381-.271a4.7,4.7,0,0,1,1.121-.891c-.6-.218-.874-.388-.868-.535.009-.213.6-.376,1.417-.6h0c.249-.069.531-.147.82-.233.221.3.855.448,1.885.448,4.893,0,17.611-3.343,23.723-4.949l.165-.043.976-.256c9.875-2.586,21.732-6.717,33.2-10.712h0c6.692-2.331,13.013-4.533,18.925-6.434a66.671,66.671,0,0,1,9.4-2.114c3.481-.572,7.312-1.056,11.018-1.524h0C164.252,5.89,176.092,4.394,181.763,0c4.092.759,8.286,2.487,12.728,4.318A112.275,112.275,0,0,0,205.5,8.4a49.16,49.16,0,0,0,5.976,1.391,39.254,39.254,0,0,0,6.36.534c.551,0,1.107-.013,1.654-.037a24.075,24.075,0,0,0,3.655-.477c1.2-.242,2.5-.57,3.968-1,2.733-.809,5.569-1.839,8.571-2.929,6.8-2.469,13.829-5.022,19.953-5.022a18.527,18.527,0,0,1,3.31.283,14.091,14.091,0,0,1,3.068.918l-.13.216c-.595.992-1.268,2.115-1.928,3.213h2.058V2.743a21.441,21.441,0,0,1,8.1,6.583,31.35,31.35,0,0,0,2.953,3.167,14.6,14.6,0,0,0,4.039,2.6,17.757,17.757,0,0,0,4.695.615,25.033,25.033,0,0,0,6.142-.848c2.018-.509,4.051-1.2,6.018-1.872a46.407,46.407,0,0,1,10.582-2.7c2.075,3.748,7.275,6.251,12.3,8.671,1.816.874,3.693,1.777,5.354,2.713a21.4,21.4,0,0,1,4.291,3.018v.686c0,.087.005.227.015.391.028.461.067,1.092-.107,1.277a.156.156,0,0,1-.117.052.431.431,0,0,1-.249-.119l1.865,1.867.155.156,1.865,1.866c-.778-.974-1.569-1.962-2.267-2.834l-.476-.6c1.585.15,2.5.217,2.974.217.372,0,.446-.041.532-.089.019-.011.038-.021.062-.032a3.488,3.488,0,0,1,1.315-.121c.35,0,.784.009,1.289.026v-.688l-.107-.05c-1.653-.766-1.653-.766-2-1.5a13.2,13.2,0,0,0-.635-1.2c2.108.234,7.381,3.078,10.337,4.752a91.673,91.673,0,0,1,8.868,5.537l-.487.176-.011,0c-.979.352-.979.352-.936.506s.127.45-.623,1.371a7.242,7.242,0,0,1,2.784-.731,6,6,0,0,1,3.065,1.16c.486.282,1.035.6,1.694.942.127-.774.018-.948-.034-1.032s-.051-.082.261-.461c.11-.133.261-.316.461-.565a7.331,7.331,0,0,0,1.824,2.772,14.169,14.169,0,0,0,3.158,2.278,36.476,36.476,0,0,0,9.081,3.225,82.974,82.974,0,0,0,10.712,1.709c3.331.328,6.745.5,9.875.5,4.413,0,7.577-.355,7.875-.884,1.867.409,5.865,1.517,9.323,2.662,1.968.652,3.544,1.241,4.683,1.752,1.34.6,2.037,1.076,2.069,1.413.013.139-.088.256-.3.347a3.118,3.118,0,0,0,1.574.375,14.34,14.34,0,0,0,4.729-1.3l.069-.027a14.769,14.769,0,0,1,4.913-1.329,3.327,3.327,0,0,1,2.431.912c-4.15,1.647-4.146,1.93-4.1,4.644.009.592.021,1.328-.011,2.215l-1-.67-.024-.016-1.029-.686a5.775,5.775,0,0,1,.033-1.25c.027-.238.045-.4-.007-.453a.077.077,0,0,0-.061-.024c-.094,0-.264.093-.65.356a3.014,3.014,0,0,0-.458-.028,33.249,33.249,0,0,0-4.351.492c-1.876.3-4.106.711-6.278,1.165-2.265.473-4.278.947-5.822,1.372a9.521,9.521,0,0,0-2.982,1.113,11.367,11.367,0,0,0-4.759-3.43,13.807,13.807,0,0,0-2.759-.732,18.353,18.353,0,0,0-2.905-.22,29.11,29.11,0,0,0-5.588.6c-2.037.4-3.988.943-5.279,1.318-.759.221-1.48.439-2.178.65l-.012,0a23.649,23.649,0,0,1-5.278,1.263,1.606,1.606,0,0,1-.736-.138c2.124-.638,2.425-.966,3.153-1.757.24-.261.538-.585.964-.986-.19-.754-.382-1.523-.567-2.266l-.015-.058-.1-.419a6.235,6.235,0,0,1-2.115.456,3.981,3.981,0,0,1-1.005-.138L372,52.43a3.152,3.152,0,0,0-.772-.122,3.113,3.113,0,0,0-1.53.506c.04.266.079.447.108.579.076.35.076.35-.194.626a13.083,13.083,0,0,0-1.285,1.538l-4.353-1.339-4.563-1.4.028-.056.013-.026c.211-.423.429-.861.645-1.29.658-.221,1.3-.434,2.057-.686a1.906,1.906,0,0,1-.141,1.049c-.025.055-.04.088-.029.11s.084.045.247.077c.131.026.327.064.608.135l1.752.35.026.005,1.651.33c.124-.624.251-1.257.374-1.87q.156-.78.312-1.559c-.307-.06-.563-.108-.768-.147-1.031-.194-1.031-.194-1.349-.58a10.447,10.447,0,0,0-1.312-1.331v3.429c-.152-.355-.264-.634-.354-.858v0a2.334,2.334,0,0,0-1.2-1.514c-.137-.1-.307-.222-.507-.37-.205.238-.3.337-.349.337s-.054-.074-.072-.2a2.273,2.273,0,0,0-.265-.827c-.169.006-.332.009-.483.009a5.368,5.368,0,0,1-1.835-.247,3.638,3.638,0,0,1-1-.593,5.914,5.914,0,0,0-2.86-1.228l.55.824.092.137.052.079.68,1.02-.647-.113c-1.586-.274-1.586-.274-2.426-.966l0,0c-.1-.085-.22-.181-.354-.289,1.055-1.845,1.9-3.326,2.743-4.8l-.14.176c-.9,1.129-1.754,2.194-2.6,3.253l-3.429-2.057.481.962.018.037.016.032c.281.562.572,1.142.856,1.713h-.686c-.673-.224-1.37-.455-2.057-.686V41.839h2.057a11.328,11.328,0,0,0-1.758-1.48,6.466,6.466,0,0,1-1.36-1.18,5.627,5.627,0,0,1-1-2.14c-1.028-.087-1.839-.13-2.478-.13a5.579,5.579,0,0,0-1.624.174l-.1.029a3.175,3.175,0,0,1-1.025.145,17.981,17.981,0,0,1-2.313-.219,2.088,2.088,0,0,0,.786,1.371c.083.066.133.106.129.151-.008.075-.175.16-.623.387l-.292.148a8.755,8.755,0,0,0-.59.729c-.108.15-.108.15-.273.2a8.652,8.652,0,0,0-1.2.446v-.686c.54-.386.726-2.178.788-3.613a37.358,37.358,0,0,0-.1-4.617H335.4c.177.7.356,1.422.53,2.116l.025.1.131.525a9.891,9.891,0,0,0-1.611-.3.6.6,0,0,0-.4.144,6.273,6.273,0,0,1-2.789.846,15.818,15.818,0,0,1-.58-1.519c-.381-1.142-.381-1.142-2.828-1.9l-.021-.007c.109.878.221,1.772.329,2.636l.012.094.04.32c.1.8.2,1.625.3,2.436,1.34-.129,1.47-.489,1.525-.643.017-.047.027-.075.061-.075.055,0,.171.076.48.279.162.106.384.252.677.439l-1.372,1.372-1.213-.3-.158-.04-1.372-.343-.623-1.557L326.484,36l-.682-1.7h2.058l-1.4-2.455-.042-.074-.231-.4-1.067-1.867a9.359,9.359,0,0,1-.443,1.618c-.144.322-.3.46-.528.46a3.01,3.01,0,0,1-1.123-.453A18.01,18.01,0,0,0,321,30.18c.214.645.446,1.341.686,2.058-.839-.374-1.416-.6-1.838-.769h0c-1.155-.456-1.155-.456-2.216-1.752-.2-.244-.449-.548-.748-.907a4.556,4.556,0,0,0-.285,1.666c0,.07.005.105-.012.123s-.039.017-.08.017h-.159a6.058,6.058,0,0,0-1.521.255,30.618,30.618,0,0,0,1.156-6.648,14.669,14.669,0,0,0-.151-3.3,4.887,4.887,0,0,0-1.006-2.4v6.858a12.322,12.322,0,0,0-2.972.492,10.13,10.13,0,0,0-2.514,1.568V24.691a4.737,4.737,0,0,1,1.038-.151,1.292,1.292,0,0,1,.317.033c.031.008.055.016.073.022a.172.172,0,0,0,.046.012c.023,0,.029-.021.049-.09a5.508,5.508,0,0,1,.535-1.2q-.166-.5-.342-1.025l-.013-.038c-.109-.326-.221-.663-.331-.994L306.6,19.2l-1.029,2.4-.133.311-.9,2.089a4.365,4.365,0,0,0,.811.79c.024.017.035.024.036.032s0,.012-.012.023a2.252,2.252,0,0,0-.149,1.213,7.848,7.848,0,0,1,1.353.3,4.474,4.474,0,0,1,1.139.566,9.764,9.764,0,0,1,2.309,2.563c-.554.253-.939.4-1.219.51-.726.281-.726.281-1.05,1.1v0c-.107.269-.253.638-.473,1.134A9.314,9.314,0,0,1,309.351,32a9.946,9.946,0,0,1,3.022.493,17.763,17.763,0,0,1,3.826,1.8h-1.371l-.943,1.572-.1.165-1.015,1.692h-.686V34.3a2.748,2.748,0,0,1-1.41.364,7.6,7.6,0,0,1-1.388-.176l-.081-.015a8.619,8.619,0,0,0-1.64-.191,6.1,6.1,0,0,0-3.709,1.39c.463.7.933,1.4,1.372,2.057h-2.743a4.123,4.123,0,0,0-.6-1.923,9.793,9.793,0,0,0-1.122-1.457,6.121,6.121,0,0,1-1.119-1.564,2.248,2.248,0,0,1,.092-1.914h-4.115a5.611,5.611,0,0,0-.033-4.361,18.555,18.555,0,0,1-.653-2.5c2.042-.407,4.118-.822,6.125-1.224l.015,0,.721-.144c-.153-.331-.275-.573-.374-.766v0c-.322-.633-.322-.633.039-1.107a12.23,12.23,0,0,0,1.021-1.554h2.743l-.9-.45-.073-.036-1.769-.885h2.057c.224-.985.333-1.285.468-1.285a.3.3,0,0,1,.139.059l0,0,.035.021a.511.511,0,0,0,.265.082c.3,0,.674-.306,1.148-.937-.557-.833-.96-1.437-1.372-2.057l-.044.031a39.559,39.559,0,0,1-3.328,2.171,6.123,6.123,0,0,1-2.871.939,3.059,3.059,0,0,1-2.674-1.77c-.649.431-1.309.872-1.947,1.3l-.007,0-.1.069a4.33,4.33,0,0,0,.811.79c.024.016.034.024.036.031s0,.012-.012.023a2.254,2.254,0,0,0-.149,1.214l-2.767.615-.319.071-3.086.686c.114.685.23,1.381.342,2.054l0,.023c.111.663.225,1.348.34,2.038-1.382-1.15-2.795-2.328-4.115-3.429v2.058a30.482,30.482,0,0,0-9.6-5.487c.205.525.344.842.436,1.051a1.675,1.675,0,0,1,.2.682,6.687,6.687,0,0,0-1.456-1.044,7.418,7.418,0,0,0-1.928-.69,7.962,7.962,0,0,1,1.637,3.38,10.95,10.95,0,0,1,.059,2.949,11.727,11.727,0,0,0,.361,4.647h4.8c-.2-1.228-.2-1.525-.116-1.622.036-.042.088-.043.148-.043.209,0,.525,0,.654-1.766a22.015,22.015,0,0,1-1.809-2.644,22.932,22.932,0,0,0-1.435-2.154,7.96,7.96,0,0,1,2.648.65,23.429,23.429,0,0,1,2.448,1.264,19.308,19.308,0,0,0,5.008,2.2l-.449.9-.05.1c-.281.563-.581,1.161-.872,1.744h.686a3.861,3.861,0,0,1,2.477-.763,6.5,6.5,0,0,1,3.01.763c.214.52.419,1,.6,1.428l.007.017a12.909,12.909,0,0,1,1.3,4.058,7.884,7.884,0,0,1-1.222,4.1l2.834,1.134.315.126,3.71,1.484-.016-.1c-.206-1.237-.438-2.639-.669-4.016.265.528.483.964.686,1.371.219.046.4.082.569.114,1.051.2,1.051.2,1.538,1.281v0c.147.324.348.769.637,1.345a9.61,9.61,0,0,0-2.137.942.932.932,0,0,1-.492.2,3.906,3.906,0,0,1-1.023-.29l-.016-.006-.448-.155a15.993,15.993,0,0,0,.741,2.8c.492,1.426.7,2.017-.741,4.065-.528-.8-.941-1.144-1.382-1.144s-.9.357-1.527.851a12.574,12.574,0,0,1-2.525,1.64,2.429,2.429,0,0,0,1.012.932,5.859,5.859,0,0,0,1.27.394,6.794,6.794,0,0,1,3.151,1.443,12.673,12.673,0,0,0-4,.861,10,10,0,0,0-2.855,1.883c-1.565,1.46-1.561,1.509-1.453,2.755.03.346.067.778.082,1.359a5.521,5.521,0,0,0-1.362-.205,2.6,2.6,0,0,0-1.139.254l-.033.014-.021.009a2.088,2.088,0,0,1-.912.231,3.92,3.92,0,0,1-1.333-.3c.475-.715.96-1.441,1.372-2.057a6.759,6.759,0,0,0-1.917.583,2,2,0,0,1-.752.239c-.408,0-.759-.366-1.446-1.508l-3.431-4.115h-.686c-.177,1.031.039,1.214.12,1.283.019.016.032.027.032.041s-.046.064-.182.175-.334.274-.655.558l.993.5,1.75.875a11.308,11.308,0,0,0-7.553,2.933,8.475,8.475,0,0,0-2.734,3.925,27.342,27.342,0,0,0-2.968-1.408h0a28.173,28.173,0,0,1-8.006-4.764V58.3a2.652,2.652,0,0,0,.973.316c.023,0,.04,0,.053,0h.031c.022,0,.023.01.029.059a3.816,3.816,0,0,0,.286,1l-.442-.11-.039-.01c-.742-.185-1.509-.376-2.262-.566a7.046,7.046,0,0,0-.046-2.06,2.431,2.431,0,0,0-.675-1.04,14.334,14.334,0,0,1-1.336-1.7c.237.829.478,1.672.711,2.487.216.758.44,1.543.661,2.313a8.054,8.054,0,0,1-.995-.186,2.214,2.214,0,0,0-.431-.08.152.152,0,0,0-.135.051c-.072.1,0,.371.19.9l-4.554-1.656-2.99-1.087v.686c.924.464,1.83.917,2.743,1.372l-1.372,1.372a11.527,11.527,0,0,0-5.155-5.493,32.414,32.414,0,0,0-7.887-2.3c-.657-.139-1.336-.283-2.049-.439v.686h1.372a9.334,9.334,0,0,0,2.089,1.92,6.213,6.213,0,0,0,1.724.671,14.324,14.324,0,0,1,2.359.838l-.457.229-.02.01-.042.021-.853.426-.219.219c-.136.137-.306.307-.467.466a19.491,19.491,0,0,1-3.588-1.46,12.39,12.39,0,0,1-2.452-1.714,17.618,17.618,0,0,1-3.076-3.956c-.368-.583-.749-1.185-1.172-1.786a12.175,12.175,0,0,1-4.259,1.546,41.561,41.561,0,0,1-5.129.434h-.01c-.5.024-1.026.048-1.577.077v.686a16.161,16.161,0,0,1,7.352,2.087c.882.441,1.794.9,2.938,1.342V52.129l.386.193.1.048.039.019.85.425a11.084,11.084,0,0,0,3.753,3.31c1.4.846,2.418,1.457,2.419,3.548l-.851-.047-.16-.009c-3.716-.206-7.559-.419-11.336-.63l-.6-1.5c-.7-1.75-1.423-3.56-2.145-5.362a6.366,6.366,0,0,1-1.894.261,16.208,16.208,0,0,1-4.82-.915c-1.789-.572-3.626-1.339-5.188-2.013-.5-.217-1-.435-1.481-.645h0c-2.794-1.224-5.208-2.281-6.567-2.281a1.593,1.593,0,0,0-.624.108c-.879.376-.919.684-.937.832-.009.07-.014.109-.094.109a4.883,4.883,0,0,1-.792-.191h0l-.23-.063a8.881,8.881,0,0,0-1.129-3.175,6.27,6.27,0,0,0-1.965-2.007,10.5,10.5,0,0,0-5.762-1.352,52.209,52.209,0,0,0-9.008,1.14l-.362.068a47.405,47.405,0,0,1-8.033,1.073,7.934,7.934,0,0,1-3.235-.551,3.483,3.483,0,0,1-1.29-1.379,8.112,8.112,0,0,0-1.253-1.565,4.989,4.989,0,0,0-2.258-1.172c-.083.434-.117.709-.142.909-.058.464-.058.464-.491.962-.171.2-.406.467-.738.872l2.058,2.057c.031-.245.072-.345.143-.345.051,0,.116.053.2.12a1.388,1.388,0,0,0,.345.225,10.3,10.3,0,0,1,2.255,2.226,30.721,30.721,0,0,1,2.278,3.432,97.3,97.3,0,0,1,4.385,8.746l-1.091-.545-1.654-.826v4.115l-3.429-3.429c.186.738.369,1.472.572,2.287l.114.456a12.93,12.93,0,0,0-3.266-1.563,31.23,31.23,0,0,0-3.274-.81c-.553-.115-1.124-.235-1.69-.37.115.578.233,1.167.347,1.736l.016.078q.162.808.323,1.615L160.5,59.33l-.148-.111-1.223-.917a5.481,5.481,0,0,0,.261-2.8,6.731,6.731,0,0,0-1.083-2.648,10.443,10.443,0,0,0-3.864-3.349,13.366,13.366,0,0,0-5.6-1.494v3.429a8.912,8.912,0,0,1,1.318-.1c2.083,0,3.382.879,4.886,1.9a21.524,21.524,0,0,0,2.714,1.636c-.377.52-.666.891-.877,1.162-.595.764-.595.764-.3,1.168a7.517,7.517,0,0,1,1.174,2.471l-.461,0a4.968,4.968,0,0,0-1.786.228c-.384.107-.909.254-1.87.461.23-.592.383-.93.483-1.153v0a1.682,1.682,0,0,0,.193-1.051h0c0-.272,0-.645.009-1.223l-3.787-1.748-.487-.225-4.642-2.142a8.313,8.313,0,0,0,3.232,3.609,21.632,21.632,0,0,0,5,2.564l-.077.233c-.2.594-.4,1.209-.609,1.825l-2.9-2.029-.177-.124L146.1,56.243c-.126.774-.016.949.036,1.033s.052.082-.263.463c-.109.132-.259.313-.46.562l-2.743-2.743a4.883,4.883,0,0,0,.12,1.276c.074.32.074.32-.429.974l0,0c-.1.131-.226.294-.374.491-.148-.147-.3-.294-.458-.458l-.228-.228a5.182,5.182,0,0,0-.219-1.3.461.461,0,0,0-.459-.358,3.513,3.513,0,0,0-.985.271,15.584,15.584,0,0,1-2.453.7,8.343,8.343,0,0,0-.321-1.959,13.474,13.474,0,0,0-1.053-2.156c.346-.381.545-.577.652-.682.083-.082.111-.11.11-.127s-.009-.015-.021-.025c-.066-.051-.24-.187-.053-1.222l7.247,3.294.3.135a7.115,7.115,0,0,0-1.791-2.384,2.219,2.219,0,0,0-1.424-.348,4.247,4.247,0,0,1-1.875-.352,10.812,10.812,0,0,1-3.142-2.4c.329-.143.6-.233.812-.306.311-.105.482-.163.507-.27.031-.134-.171-.341-.63-.8a3.962,3.962,0,0,0-1.27.3.235.235,0,0,1-.085.03c-.03,0-.053-.023-.109-.078a6.809,6.809,0,0,0-1.281-.942c.214.638.437,1.308.616,1.847l.07.211c-.161.682-.106.756.155,1.113a9.3,9.3,0,0,1,1.217,2.316c-.566-.378-1.31-.875-2.057-1.372.361.9.726,1.812,1.084,2.707l.24.6.006.016c.464,1.159.943,2.357,1.415,3.535l-.94-.626-.057-.038-.016-.01-1.048-.7,1.017,1.271.023.028c.559.7,1.137,1.421,1.706,2.13l-.454-.151-.024-.008c-.519-.172-1.056-.351-1.582-.527l-.312.089-.012,0a4.811,4.811,0,0,1-1.149.254.746.746,0,0,1-.667-.391,9.9,9.9,0,0,1-.7-1.412c-.166-.37-.353-.788-.587-1.287.218-.434.442-.882.686-1.372h-2.743l.1.3c.435,1.3.846,2.536,1.27,3.81-.45-.9-.9-1.8-1.372-2.743a7.381,7.381,0,0,1-3.542-1.37,14.816,14.816,0,0,0-2.63-1.373c.493-.326.742-.519.876-.624.119-.092.159-.123.208-.123a.365.365,0,0,1,.086.016c.034.009.075.019.133.03a3.643,3.643,0,0,0,.653.047c.225,0,.489-.011.786-.032a3.851,3.851,0,0,0-1.822-1.263c-.457-.142-.457-.142-.309-1.941V49.6c.022-.262.046-.558.073-.9h-.686c-.786,1.047-1.459,1.945-2.058,2.743.233.631.449,1.107.623,1.489.32.7.5,1.089.338,1.515s-.611.868-1.647,1.8c-.243-1.208-.483-2.411-.686-3.429a6.14,6.14,0,0,0-1.622,3.925,12.371,12.371,0,0,1-.436,2.247L116.6,56.929c.174-.649.4-1.392.626-2.11.3-.958.6-1.948.77-2.7.188-.838.181-1.285-.022-1.365-.49-.49-.931-.931-1.374-1.372a6.893,6.893,0,0,1-1.023,1.808,11.987,11.987,0,0,1-1.666,1.743,22.243,22.243,0,0,1-4.792,3.073,31.183,31.183,0,0,1-5.958,2.162,25.569,25.569,0,0,1-6.184.817l-.268,0-3.429-3.429.091-.137c.458-.685.87-1.3,1.281-1.921.031.246.072.347.143.347.052,0,.117-.053.2-.121a1.4,1.4,0,0,1,.344-.226c.18-.716.362-1.445.538-2.15l.009-.036.139-.557H95.34c-3.153,4.129-6.6,5.635-9.642,6.965a18.817,18.817,0,0,0-4.763,2.636L76.82,58.3c-.537.941-1.084,1.9-1.613,2.823l-.024.042-.125.218L74.077,63.1c-.293-.7-.4-.929-.5-.929-.057,0-.115.065-.2.163A2.172,2.172,0,0,1,72.019,63.1ZM272.988,51.443h0l-.649.974-.054.081-.668,1,1.4-.35.075-.019,1.27-.317a33.961,33.961,0,0,1,1.392-5.072,15.866,15.866,0,0,1,1.351-3.16V43.211a5.374,5.374,0,0,0,2.328.5,22.255,22.255,0,0,1,2.473.188l.285.569.016.032v0c.126.252.257.513.386.768-.243.193-.424.341-.556.448h0c-.275.224-.358.291-.411.291a.121.121,0,0,1-.062-.025.558.558,0,0,0-.06-.032.877.877,0,0,0-.357-.057,3.858,3.858,0,0,0-.613.062l1.277,2.872q.749,1.685,1.468,3.3l.451-.387c1.338-1.148,2.855-2.448,4.349-3.728a4.757,4.757,0,0,0-.717-.068.9.9,0,0,0-.437.079.253.253,0,0,0-.068.059c-.01.012-.017.02-.025.02s-.039-.025-.1-.091c-.1-.1-.293-.308-.708-.683.358-.117.633-.2.854-.271.749-.232.749-.232.7-.466s-.144-.738.5-2.009a3.85,3.85,0,0,0,.6.059.884.884,0,0,0,.368-.06.532.532,0,0,0,.061-.034.119.119,0,0,1,.063-.026c.052,0,.134.067.4.291h0c.132.109.313.258.558.455a1.646,1.646,0,0,0-1.072,1.173,3.914,3.914,0,0,0,.215,1.566c.058.221.118.45.172.692.623-.625,1.275-1.276,1.85-1.851l.893-.892a6.759,6.759,0,0,0,.669,1.917,3.051,3.051,0,0,1,.005-1.416c.028-.076.028-.076-.107-.282-.1-.155-.274-.415-.567-.907l.232-.185.031-.025c1.038-.83,2.112-1.688,3.166-2.533v-.686a14.125,14.125,0,0,1-1.918.617c-.935.24-1.033.265-.825,1.441-.919-.458-1.816-.907-2.743-1.372l.455-.113c.705-.176,1.5-.375,2.289-.573-1.412-2.493-1.489-3.085-1.676-4.516-.076-.579-.17-1.3-.381-2.342-.227.453-.458.915-.681,1.361l-.007.015c-.244.488-.464.928-.683,1.367l-.324-.648-.011-.021-.006-.012c-.113-.226-.23-.459-.345-.689l-1.448-2.535-1.295-2.266c-.561.377-1.419.9-2.505,1.565l-.006,0a119.724,119.724,0,0,0-12.13,8.2,40.2,40.2,0,0,0-5.631,5.309,18.334,18.334,0,0,0-1.955,2.755,9.94,9.94,0,0,0-1.094,2.745h2.06a2.941,2.941,0,0,1,.669-1.237,7.113,7.113,0,0,1,1.266-1.124,31.558,31.558,0,0,1,3.523-2.059l.715-.38-.094.132-.01.013c-1.091,1.525-2.219,3.1-3.325,4.656v.686c2.186-.548,3.93-.984,5.486-1.371Zm-21.132.388h0a4.975,4.975,0,0,1,2.613.981l2.873-1.724.556-.334c-.8-.267-1.421-.472-2.057-.686a46.335,46.335,0,0,1,4.881-1.169,16.46,16.46,0,0,0,3.349-.888c-.429-1.075-.857-2.144-1.372-3.429l-1.437-.288-1.992-.4.325.649.022.044c.111.222.226.452.339.678l-.484.363-.043.032-4.959,3.719c-1.031-.2-1.69-.286-2.17-.346a3.561,3.561,0,0,1-1.351-.331,16.5,16.5,0,0,1-1.967-1.381c-.441.223-.9.453-1.313.657l-.058.029c.473,2.129.682,2.381,1.243,3.056.21.253.471.567.814,1.059A13.644,13.644,0,0,1,251.855,51.831Zm-117.42-9.992h0a10.1,10.1,0,0,1,5.131,3.646,12,12,0,0,0,5.158,3.9,16.842,16.842,0,0,1-1.515-3.012c-.673-1.6-1.309-3.106-2.6-3.846a12.061,12.061,0,0,0-3.718-2.695,12.217,12.217,0,0,1-3.828-2.794c2.374.4,2.812.7,3.771,1.371.282.2.6.419,1.029.686a22.038,22.038,0,0,0-1.727-2.207,9.145,9.145,0,0,0-1.633-1.43,25.943,25.943,0,0,0-4.917-2.282l-.057-.023-.582-.231c-.506.454-.937.86-1.317,1.217a12.491,12.491,0,0,1-2.087,1.732,4.282,4.282,0,0,1-2.29.543c-.341,0-.722-.021-1.164-.064a7.546,7.546,0,0,0,.611,1.964,4.5,4.5,0,0,0,.6.909c.411.505.411.505-1.034,1.773l-.176.155c1.046,3.009,3.19,3.361,5.672,3.769.607.1,1.234.2,1.872.348v-.686a13.962,13.962,0,0,0-1.591-1.917c-.66-.677-.779-.8-.466-2.2.563.395,1.11.836,1.689,1.3h0a17.856,17.856,0,0,0,5.853,3.5c.156-.311.314-.628.467-.933l.006-.011v0l.212-.425c-.273-.412-.549-.825-.854-1.283l-.517-.776ZM157.758,43.9l.034.022.093.062c.633.423,1.288.86,1.931,1.287v2.746l.458-.458.014-.014c.295-.3.6-.6.9-.9a8.615,8.615,0,0,1-.142-2.43,11.4,11.4,0,0,1,.828-3.059H160.5a31.3,31.3,0,0,0-6.634-1.219,39.453,39.453,0,0,1-5.109-.789,15.223,15.223,0,0,1-2.429-.806,11.878,11.878,0,0,1-2.29-1.3l-.982.327-1.075.358.673.336.012.006.687.344,7.333,4.889.244.163,6.827,4.552.811-1.219.027-.04.534-.8-.006,0-1.018.34-.082.027-.951.318C157.353,45.512,157.565,44.665,157.758,43.9ZM72.131,45.176c.517,0,.523.241.552,1.4v.018c.005.214.011.456.022.734.48-.483.942-.944,1.372-1.372-.7-1.9-.647-2.193-.569-2.63a5.254,5.254,0,0,0-.117-2.173,12.593,12.593,0,0,0,4-.833,21.292,21.292,0,0,0,3.058-1.578,28.53,28.53,0,0,1,3.232-1.7V35.667H81.621l-.284.852-.043.128c-.118.353-.24.718-.359,1.077a2.952,2.952,0,0,0-.59-.056,7.244,7.244,0,0,0-2.691.657,18.061,18.061,0,0,0-3.119,1.729,22.222,22.222,0,0,0-2.982,2.436,14.9,14.9,0,0,0-2.28,2.779c.28.015.56.023.831.023.541,0,.963-.031,1.271-.059l.239-.022C71.828,45.192,72,45.176,72.131,45.176ZM47.326,43.9h0c-.336.676-.679,1.362-1.011,2.025l-.009.018-.088.175-.263.527h4.8a3.879,3.879,0,0,0-1.2-.8c-.11-.047-.171-.073-.184-.118s.043-.143.174-.333h0c.115-.168.29-.422.519-.81h2.746V40.467c.4.286.709.491.96.655.893.586.893.586.651,1.641-.067.292-.15.655-.239,1.134.364.017.7.026.987.026.234,0,.4-.006.528-.01l.08,0H55.8c.081,0,.152-.006.211-.006.226,0,.312.043.726.251.2.1.476.239.882.43-.059-.8-.148-1.393-.214-1.822-.212-1.4-.216-1.425,1.585-2.978l.679,1.019.01.015.682,1.024c.088-1.963.384-2.076.793-2.232.361-.138.811-.31,1.265-1.883l-1.468-.367-.085-.021-1.19-.3q.175.528.361,1.083l.038.115.287.86a13.991,13.991,0,0,0-2.4-.2,19.027,19.027,0,0,0-7.573,1.634,12.713,12.713,0,0,0-5.8,4.737c.878-.437,1.787-.892,2.588-1.294l.155-.078Zm217.433-8.915h0l.146.586.01.04c.173.694.352,1.412.53,2.116l-1.371,2.743-.686,1.372h.686l.493-.37.125-.094,2.126-1.594a6.875,6.875,0,0,0-1.508.51c-.2.1-.234.119-1.235.176l2.143-1.428.015-.01.119-.079,1.839-1.226c-.235.7-.468,1.4-.686,2.058l.452-.226.919-.46c.507-.779.654-.969.747-.969a.142.142,0,0,1,.08.037l.025.018a.3.3,0,0,0,.18.055,2.194,2.194,0,0,0,1.026-.512c-.328-.464-.573-.763-.771-1h0a6.4,6.4,0,0,1-1.286-2.425c.922-.462,1.82-.911,2.743-1.372-.115-.347-.231-.694-.359-1.078q-.163-.49-.326-.979l-.579.723-.079.1c-.684.855-1.391,1.738-2.085,2.607l-2.743-2.743h3.429c-.215-.273-.41-.528-.582-.752l-.01-.014c-1.041-1.354-1.472-1.914-2.366-1.914a9.533,9.533,0,0,0-2.528.622c.232-1.029.445-1.725.6-2.234.377-1.235.377-1.235-.667-1.808-.319-.175-.756-.415-1.307-.761-.1.1-.181.186-.243.254-.094.1-.145.16-.191.16-.061,0-.107-.1-.22-.344l-.032-.07H257.9V19.2c-.69.2-1.088.349-1.352.447a1.555,1.555,0,0,1-.519.142,2.08,2.08,0,0,1-.558-.13c-.327-.1-.821-.252-1.686-.458l-.681,1.021-.018.027-.673,1.009c1.115-.293,1.365-.581,1.471-.7.035-.04.054-.062.083-.062s.09.037.216.128h0c.167.12.447.321.972.638v.686a16.35,16.35,0,0,1-4.2-.367,11.689,11.689,0,0,0-2.654-.319l2.058.686c.694.68,3.621,3.283,6.75,5.692a51.031,51.031,0,0,0,4.6,3.217,8.031,8.031,0,0,0,3.441,1.414,1.3,1.3,0,0,0,.3-.033c-.452.9-.913,1.824-1.372,2.743-.595-.4-1.249-.833-2.06-1.372a12.059,12.059,0,0,1,.432,1.943,3.575,3.575,0,0,0,.942,2.172c.458-.918.919-1.841,1.371-2.742ZM236.635,38.41A6.422,6.422,0,0,0,240,40.791a14.264,14.264,0,0,0,4.561.681,15.747,15.747,0,0,0,5.787-1,8.216,8.216,0,0,0-1.241-.8c-.571-.3-.725-.386-1.5-1.948l.555-.107c2.12-.405,2.293-.438,3.56-1.951l-1.978-.33-.037-.006-2.1-.35c-.529.81-.875,1.4-1.128,1.836-.783,1.343-.783,1.343-2.911,2.247l-.074.031.362-1.089.322-.968c-.91.446-1.537.8-1.994,1.066a3.518,3.518,0,0,1-2.049.705,26.022,26.022,0,0,1-3.009-.331l-.215-.03ZM225.66,32.924h0q-.168.506-.337,1.012-.174.523-.349,1.046h4.115l-2.84-1.7-.589-.353Zm5.489-3.429h0a4.935,4.935,0,0,1-1.518,1.247,10.236,10.236,0,0,1-1.93.632l-.009,0c-.207.055-.422.112-.658.176l.395.2.074.037.9.451a9.8,9.8,0,0,0,1.832,1.551,3.224,3.224,0,0,0,1.7.544,3.357,3.357,0,0,0,1.954-.724l-4.115-2.058c.672-.232,1.092-.345,1.37-.419.533-.143.533-.143.754-.569.114-.22.286-.55.618-1.069h-1.372Zm5.487-3.431h0c-1.053,1.287-1.245,1.32-1.709,1.4a4.725,4.725,0,0,0-1.72.659l1.289.967.237.178,1.217.913c.512-.294.873-.467,1.136-.594.763-.367.763-.367,1.447-1.812l.019-.041.14-.3-1.01-.674-.028-.019-.048-.032-.97-.647Zm-17.148-4.8h0c-1.266,1.771-2.2,3.194-3.016,4.451h0a49.656,49.656,0,0,1-3.155,4.464l.189-.031c1.282-.213,2.608-.433,3.926-.654a5.517,5.517,0,0,1-.3-3.668,7.327,7.327,0,0,1,1.86-2.483h0a26.691,26.691,0,0,0,1.869-2.078h-1.372Zm28.12,2.743c-.606,1.213-1.216,2.433-1.806,3.613l-.234.469-.7,1.4.477-.119.1-.024c.712-.177,1.448-.361,2.17-.543a13.986,13.986,0,0,1,.467-3.14C248.28,24.878,248.328,24.691,247.608,24.006Zm-109.058.686h0c.443,1.327.914,2.738,1.371,4.115l2.221-.951.252-.108,2.33-1c-4.631-2.537-8.179-3.771-10.848-3.771a6.587,6.587,0,0,0-2.184.342q.17-.512.342-1.024l.03-.089q.158-.472.315-.944h-.686a12.762,12.762,0,0,1-3.325,3.229,6,6,0,0,0-1.489,1.322,1.493,1.493,0,0,0,.014,1.622c1.384-1.152,2.772-2.309,4.115-3.429.047,1.337.159,1.788.445,1.788.193,0,.471-.208.855-.5a10.124,10.124,0,0,1,2.129-1.293,3.579,3.579,0,0,1-.184,1.353,1.389,1.389,0,0,1-.328.5c-.053.054-.084.086-.079.12.008.057.118.117.411.278h0c.2.11.477.261.864.489a10.56,10.56,0,0,0,.432-1.177c.054-.184.054-.184.191-.278a6.886,6.886,0,0,0,.749-.6l-.08.243c-.2.592-.4,1.2-.606,1.815,1-.752,1.994-1.495,2.743-2.057ZM242.122,23.32l-.2.174c-1.148.984-1.148.984-1.791,1.074-.188.026-.42.059-.75.124.1.408.176.752.234,1,.291,1.277.291,1.277.909,1.722h0c.214.154.508.365.913.7.2-.175.374-.33.517-.455,1.27-1.11,1.27-1.11,1.067-2.549-.06-.428-.143-1.014-.213-1.8h-.686ZM264.756,19.2h0l2.057,1.374c-.711.472-1.426.95-2.057,1.372a11.516,11.516,0,0,1,4.268,2.1,6.649,6.649,0,0,0,2.593,1.332c-1.444-4.094-2.752-7.8-4.117-11.664a8.619,8.619,0,0,0-3.373-2.084,18.913,18.913,0,0,0-5.543-1.343L262.7,14.4c-.873,1.749-1.756,3.515-2.61,5.223l-.164.327-.655,1.31c.715.475,1.411.94,2.057,1.372l2.743-.686c.193-.767.4-1.613.686-2.745ZM240.75,14.4c.207,2,.132,2.05-.185,2.262a1.768,1.768,0,0,0-.5.481,4.765,4.765,0,0,1-1.958,1.554,15.972,15.972,0,0,1-2.679.8c-.484.117-.985.238-1.535.386v.686a11.076,11.076,0,0,1,2.925.394,4.381,4.381,0,0,0,1.062.186,2.6,2.6,0,0,0,1.5-.581,14.236,14.236,0,0,1,1.586-.73c.536-.211.536-.211.5-.721a9.83,9.83,0,0,1-.025-1.293l.223.089.022.009,3.184,1.273a7.523,7.523,0,0,0,.124-1.267c0-.232,0-.232.21-.419a12.131,12.131,0,0,0,1.037-1.057c-1.083-.141-1.769-.213-2.222-.261-.866-.091-.866-.091-1.072-.3a8.683,8.683,0,0,0-2.192-1.5Zm-9.6,2.058-1.372,1.372.689.344.016.008.666.333a6.443,6.443,0,0,1,.83.611c.056.049.081.071.1.071s.026-.015.045-.043c.066-.095.241-.346,1.083-.639l-.982-.327-1.075-.358a10.606,10.606,0,0,1,1.178-.432c.183-.054.183-.054.277-.19a6.793,6.793,0,0,1,.6-.75Z" transform="translate(0)" fill="#93931a" opacity="0.1"/>
</svg>
