<svg xmlns="http://www.w3.org/2000/svg" width="377.544" height="412.807" viewBox="0 0 377.544 412.807">
  <path id="Tracé_51477" data-name="Tracé 51477" d="M772.687,250.535c-.469.86-.937,1.716-1.473,2.7l2.734,1.665-.66.342a20.037,20.037,0,0,0,1.253,3.355,15.057,15.057,0,0,0,2.5,3.153c2.237,2.172,2.62,4.735,2.159,7.686a66.763,66.763,0,0,0-.885,8.95,13.569,13.569,0,0,0,.994,5.4c2.229,5.26,6.544,6.177,10.976,2.542,1.03-.844,2.11-1.626,4-3.07.844,2.522,2,4.587,2.032,6.669.015,1.051-2.014,2.133-3.529,3.593.218.347.888,1.419,1.618,2.578-1.66,2.819-3.542.4-6.319-.109.831,1.944,1.154,3.495,2.032,4.611,2.812,3.575,2.9,4.419.153,7.852a3.953,3.953,0,0,0-.875,1.618c-1.393,7.469-2.058,14.984,2.894,21.464,8.413,11.013,14.378,23.429,20.842,35.555,3.938,7.388,7.407,15.025,11.2,22.5,2.783,5.486,8.354,6.684,13.537,8.38,1.859.609,3.818.917,5.667,1.548,7.808,2.669,12.209,8.566,14.769,16.045,2.514,7.337,5.3,14.622,7.109,22.137,1.053,4.38.727,9.188.424,13.765a15.217,15.217,0,0,0,1.841,9.19,11.642,11.642,0,0,1,1.307,5.532c.029,3.094-.417,6.19-.676,9.283-.332,3.979,1.952,6.935,4.142,9.757,10.032,12.913,20.232,25.694,30.287,38.589,1.4,1.789,2.721,1.848,4.525.922,3.495-1.794,6.961-3.679,10.578-5.188,1.369-.572,3.49-.842,4.641-.171a66.718,66.718,0,0,1,9.993,7.07c1.043.893,1.468,3,1.465,4.541-.021,12.209-.244,24.418-.327,36.626a21.968,21.968,0,0,0,.666,5.2,20.476,20.476,0,0,0,1.789,4.947c5.859,10.754,4.688,21.911,3.246,33.538-1.134,9.162-6.423,13.436-13.622,16.83-2.7,1.274-5.592,2.159-8.411,3.182-5.341,1.939-10.707,3.8-16.033,5.786-4.5,1.678-9.125,1.931-13.192-.557-8.313-5.082-17.164-6.146-26.59-5a8.624,8.624,0,0,1-5.279-1.02c-4.388-2.775-8.613-3.174-13.063-.367a17.288,17.288,0,0,0-2.472,1.271c-3.86,3.487-7.311,1.566-10.236-1.129-1.162-1.072-1.59-3.433-1.569-5.2.049-4.4-4.455-9.387-8.857-10.055a17.593,17.593,0,0,0-14.179,3.412c-2.454,1.83-6.485,1.442-9.695,2.418a9.279,9.279,0,0,0-4.437,2.786A38.769,38.769,0,0,1,778.1,634.457c-8.623,4.241-17.487,8-26.3,11.828a20.818,20.818,0,0,1-26.519-9.568c-2.83-5.408-7.772-7.521-13.726-6.187-6.029,1.349-11.388,3.71-15.264,8.74-1.735,2.252-4.013,2.728-6.8,2.853-5.338.238-10.767.409-15.7,3.086-.546.3-1.628-.88-2.625-.476-1.048.424-1.507,1.768-1.732,2.868-.572.852-1.134,1.714-1.719,2.555-1.121,1.615-2.151,3.306-3.417,4.8-1,1.18-2.149,2.716-3.49,3.045a145.666,145.666,0,0,1-16.354,3.221c-5.149.65-9.589-1.812-14-4.238-2.364-1.3-5.131-1.841-7.663-2.855a32.1,32.1,0,0,1-5.962-2.819,23.341,23.341,0,0,1-5.312-4.7,23.927,23.927,0,0,1-4.176-7.005c-2.363-7.016-5.687-12.962-12.889-16.17-6.829-3.042-11.893-1.936-16.2,4.17-.831,1.181-1.24,2.8-2.3,3.643-1.5,1.2-3.394,2.454-5.183,2.552-1.212.065-2.767-1.625-3.759-2.863-3.508-4.367-3.06-9.2-1.207-14.078,1.419-3.73,4.243-4.442,7.479-2.068a4.728,4.728,0,0,0,3.06,1c2.335-.331,4.97-.533,6.847-1.76,5.726-3.738,10.635-.854,15.67,1.333,1.286.559,2.348,1.649,4.434,3.376.924-1.349,1.8-2.729,2.783-4.036,6.648-8.906,15.176-15.683,24.128-22.15,6.506-4.7,12.286-10.4,19.03-16.2-4.569-2.043-7.735-5.853-12.918-4.678-2.418.546-4.769,1.6-7.2,1.823-5,.453-10.044.673-15.067.632-2.2-.018-4.942-3.7-4.978-5.967-.041-2.77-.01-5.537-.01-8.483H604.49l-3.809.07c-4.838.049-8.307-4.121-12.631-6.573a4.974,4.974,0,0,1-1.825-2.063c-4.82-9.716-9.636-19.437-14.342-29.209-4.531-9.408-2.029-17.64,4.417-25.189a442.1,442.1,0,0,1,42.254-42.837c7.725-6.884,15.243-14,22.888-20.98,1-.911,1.815-2.63,3.746-1.082.38.3,1.734-.419,2.534-.859,10.427-5.719,21.021-11.171,31.164-17.363,4.046-2.47,7.173-6.508,10.575-9.972q22.741-23.148,45.327-46.44a15.3,15.3,0,0,0,3.14-6.138c2.6-8.7,4.924-17.477,7.471-26.191,1.483-5.077.419-9.6-3.277-13.118-6.107-5.8-6.13-14.005-8.861-21.127-.285-.741.43-2.26,1.142-2.928,7.831-7.365,15.7-14.694,23.674-21.9,3.87-3.495,6.8-7.432,7.873-12.636C766.782,249.116,770.3,251.312,772.687,250.535Z" transform="translate(-563.681 -249.238)" fill="none" stroke="#cfcbb0" stroke-width="1.5"/>
</svg>
