<svg xmlns="http://www.w3.org/2000/svg" width="14.339" height="10.039" viewBox="0 0 14.339 10.039">
  <path id="youtube" d="M7.169,10.039a42.283,42.283,0,0,1-5.61-.307A1.8,1.8,0,0,1,.3,8.469,18.959,18.959,0,0,1,0,5.02,19.026,19.026,0,0,1,.3,1.571,1.836,1.836,0,0,1,1.559.3,43.78,43.78,0,0,1,7.169,0a42.1,42.1,0,0,1,5.61.307,1.8,1.8,0,0,1,1.264,1.264,18.077,18.077,0,0,1,.3,3.461,19.03,19.03,0,0,1-.3,3.449A1.794,1.794,0,0,1,12.78,9.744,43.766,43.766,0,0,1,7.169,10.039ZM5.74,2.87v4.3L9.473,5.02Z" fill="#d6da21"/>
</svg>
